<?xml version="1.0" encoding="UTF-8"?>
<svg width="29px" height="29px" viewBox="0 0 29 29" version="1.1" xmlns="http://www.w3.org/2000/svg" xmlns:xlink="http://www.w3.org/1999/xlink">
    <!-- Generator: Sketch 51.3 (57544) - http://www.bohemiancoding.com/sketch -->
    <title>facebook@2x</title>
    <desc>Created with Sketch.</desc>
    <defs></defs>
    <g id="facebook" stroke="none" stroke-width="1" fill="none" fill-rule="evenodd">
        <path d="M18.6609907,7.00297564 L16.501548,7 C14.0773994,7 12.5092879,8.54584341 12.5092879,10.9367677 L12.5092879,12.7533941 L10.3390093,12.7533941 C10.1517028,12.7533941 10,12.8992003 10,13.0792263 L10,15.7096894 C10,15.8897155 10.1517028,16.0355217 10.3390093,16.0355217 L12.5092879,16.0355217 L12.5092879,22.6741678 C12.5092879,22.8541938 12.6609907,23 12.8482972,23 L15.6811146,23 C15.8684211,23 16.0201238,22.8541938 16.0201238,22.6741678 L16.0201238,16.0355217 L18.5588235,16.0355217 C18.74613,16.0355217 18.8978328,15.8897155 18.8978328,15.7096894 L18.8993808,13.0792263 C18.8993808,12.9929329 18.8622291,12.909615 18.7987616,12.8486145 C18.7352941,12.7876139 18.6486068,12.7533941 18.5588235,12.7533941 L16.0201238,12.7533941 L16.0201238,11.213502 C16.0201238,10.4740562 16.2043344,10.0991259 17.2058824,10.0991259 L18.6609907,10.0976381 C18.8482972,10.0976381 19,9.95183188 19,9.77180584 L19,7.32880789 C19,7.14878185 18.8482972,7.00297564 18.6609907,7.00297564" id="Fill-1" fill="#9E6E4F"></path>
    </g>
</svg>