<?xml version="1.0" encoding="UTF-8"?>
<svg width="29px" height="29px" viewBox="0 0 29 29" version="1.1" xmlns="http://www.w3.org/2000/svg" xmlns:xlink="http://www.w3.org/1999/xlink">
    <!-- Generator: Sketch 51.3 (57544) - http://www.bohemiancoding.com/sketch -->
    <title>instagram@2x</title>
    <desc>Created with Sketch.</desc>
    <defs></defs>
    <g id="instagram" stroke="none" stroke-width="1" fill="none" fill-rule="evenodd">
        <path d="M18.2492096,10.1650395 C18.540822,10.1650395 18.7773852,10.4015807 18.7773852,10.693166 C18.7773852,10.9832636 18.540822,11.2198047 18.2492096,11.2198047 C17.9575972,11.2198047 17.721034,10.9832636 17.721034,10.693166 C17.721034,10.4015807 17.9575972,10.1650395 18.2492096,10.1650395 M20.500279,17.999907 C20.500279,19.9294282 18.9306305,21.5004184 16.9994421,21.5004184 L11.0005579,21.5004184 C9.06936954,21.5004184 7.49972103,19.9294282 7.49972103,17.999907 L7.49972103,12.000093 C7.49972103,10.0705718 9.06936954,8.50106927 11.0005579,8.50106927 L16.9994421,8.50106927 C18.9306305,8.50106927 20.500279,10.0705718 20.500279,12.000093 L20.500279,17.999907 Z M16.9994421,7 L11.0005579,7 C8.23916682,7 6,9.23895862 6,12.000093 L6,17.999907 C6,20.7610414 8.23916682,23 11.0005579,23 L16.9994421,23 C19.7608332,23 22,20.7610414 22,17.999907 L22,12.000093 C22,9.23895862 19.7608332,7 16.9994421,7 Z M13.97069,17.4613668 C12.5974335,17.4613668 11.4800818,16.344119 11.4800818,14.9709902 C11.4800818,13.5963738 12.5974335,12.4806137 13.97069,12.4806137 C15.3439464,12.4806137 16.4612981,13.5963738 16.4612981,14.9709902 C16.4612981,16.344119 15.3439464,17.4613668 13.97069,17.4613668 M13.97069,10.9854951 C11.7702064,10.9854951 9.98482425,12.7692236 9.98482425,14.9709902 C9.98482425,17.1712692 11.7702064,18.9564854 13.97069,18.9564854 C16.1711735,18.9564854 17.9565557,17.1712692 17.9565557,14.9709902 C17.9565557,12.7692236 16.1711735,10.9854951 13.97069,10.9854951" id="Fill-9" fill="#9E6E4F"></path>
    </g>
</svg>