<?xml version="1.0" encoding="UTF-8"?>
<svg width="82px" height="128px" viewBox="0 0 82 128" version="1.1" xmlns="http://www.w3.org/2000/svg" xmlns:xlink="http://www.w3.org/1999/xlink">
    <!-- Generator: Sketch 51.3 (57544) - http://www.bohemiancoding.com/sketch -->
    <title>logo@2x</title>
    <desc>Created with Sketch.</desc>
    <defs></defs>
    <g id="logo" stroke="none" stroke-width="1" fill="none" fill-rule="evenodd">
        <g id="Group-27" transform="translate(4.000000, 5.000000)" fill="#9E6E4F">
            <g id="Group-7" transform="translate(26.000000, 31.000000)">
                <path d="M10.7831667,53.3720795 C11.5894444,51.0583977 12.3267222,48.9390341 13.0652778,46.8209659 C13.9827222,44.1873068 14.9155,41.560125 15.8061111,38.9173977 C16.0463333,38.2036023 16.4475556,37.8901023 17.1822778,37.9458068 C17.6473889,37.9820795 18.1176111,37.9367386 18.5827222,37.9665341 C18.7360556,37.9756023 18.9328333,38.0701705 19.0120556,38.1919432 C19.0644444,38.2722614 19.0350556,38.5132159 18.8932222,38.6026023 C17.9297778,39.2464432 18.1993889,40.1286477 18.3667778,41.0302841 C19.1871111,45.4348295 19.9678333,49.8471477 20.8111667,54.2478068 C20.9095556,54.7569205 21.3107778,55.2051477 21.5701667,55.6831705 C21.6711111,55.8684205 21.8653333,56.0225795 21.8653333,56.2441023 C21.8397778,56.5303977 21.4998889,56.5018977 21.3146111,56.5057841 C20.2923889,56.5316932 19.2688889,56.5303977 18.2453889,56.5070795 C18.0754444,56.5031932 17.8122222,56.3904886 17.7675,56.2648295 C17.7240556,56.1352841 17.8492778,55.8593523 17.9808889,55.7686705 C18.5239444,55.3942841 18.607,54.9020114 18.4996667,54.2905568 C17.7892222,50.2539205 17.0953889,46.2146932 16.3951667,42.1767614 C16.3772778,42.0744205 16.3415,41.9746705 16.2750556,41.7285341 C16.1447222,42.0277841 16.0603889,42.1936023 15.9977778,42.3671932 C14.4414444,46.7056705 12.8876667,51.0467386 11.3338889,55.3865114 C11.3108889,55.4499886 11.293,55.5147614 11.2674444,55.5769432 C11.1000556,55.9863068 11.0195556,56.5057841 10.4343333,56.4837614 C9.86572222,56.4617386 9.76988889,55.9552159 9.62166667,55.5380795 C8.58411111,52.6129432 7.5555,49.6852159 6.52305556,46.7587841 C5.90972222,45.0202841 5.29511111,43.2830795 4.54761111,41.5290341 C4.40961111,42.3076023 4.26522222,43.0835795 4.13616667,43.8621477 C3.565,47.3054659 3.00661111,50.751375 2.42522222,54.1933977 C2.31916667,54.8281705 2.37666667,55.3437614 2.97083333,55.7181477 C3.13055556,55.8178977 3.3465,55.9798295 3.31072222,56.2428068 C3.30944444,56.5303977 2.90311111,56.4967159 2.69483333,56.5070795 C1.98566667,56.5394659 1.27138889,56.5381705 0.560944444,56.5057841 C0.373111111,56.4980114 0.0549444444,56.4034432 0.0306666667,56.2259659 C-0.0217222222,56.1495341 0.131611111,55.8412159 0.2645,55.7349886 C0.7935,55.3126705 0.989,54.7582159 1.09761111,54.1053068 C1.863,49.4844205 2.64883333,44.8674205 3.43722222,40.249125 C3.53944444,39.6493295 3.4845,39.1453977 2.94144444,38.7580568 C2.79577778,38.6544205 2.65905556,38.4095795 2.6795,38.1906477 C2.72422222,38.0015114 3.06283333,37.9639432 3.25577778,37.9639432 C5.78066667,37.9574659 5.46888889,37.7113295 6.25472222,40.0327841 C7.67561111,44.2287614 9.09394444,48.4260341 10.5148333,52.6220114 C10.5787222,52.8111477 10.649,52.9989886 10.7831667,53.3720795" id="Fill-1"></path>
                <path d="M13.3679833,9.76345227 C14.0247611,9.95906591 14.5575944,10.0886114 15.0699833,10.2751568 C17.22815,11.0653841 18.4228722,12.6199295 18.4752611,14.6784068 C18.5327611,16.8457023 17.4568722,18.5816114 15.2935944,19.3834977 C14.1193167,19.8187705 12.8300389,20.0726795 11.5803722,20.130975 C9.10659444,20.2462705 6.62515,20.1750205 4.14626111,20.1581795 C3.89965,20.1568841 3.40770556,20.2488614 3.40770556,19.9211114 C3.40770556,19.6918159 3.63515,19.4495659 3.77059444,19.2319295 C3.99292778,18.8717932 4.28170556,18.463725 4.28426111,18.0776795 C4.31876111,13.0292932 4.30342778,7.98090682 4.31365,2.931225 C4.31492778,2.35604318 4.06959444,1.962225 3.64665,1.61374773 C3.51248333,1.50363409 3.41153889,1.25879318 3.42942778,1.08261136 C3.44476111,0.929747727 3.70542778,0.841656818 3.85492778,0.844247727 C6.53698333,0.885702273 9.22798333,0.848134091 11.8998167,1.05799773 C12.90415,1.135725 13.9710944,1.64095227 14.82465,2.22908864 C17.5808167,4.12433864 17.1744833,8.00163409 14.1410389,9.39942955 C13.9225389,9.500475 13.7053167,9.60411136 13.3679833,9.76345227 M6.76698333,10.4539295 C6.76698333,13.0331795 6.74653889,15.5152705 6.78103889,17.9973614 C6.79126111,18.6697023 7.25381667,19.0298386 7.94509444,19.0414977 C8.96476111,19.0570432 9.98826111,19.104975 11.0015389,19.0285432 C11.93815,18.9559977 12.9015944,18.8523614 13.7870944,18.5582932 C15.0725389,18.1307932 15.8328167,17.1566114 15.9708167,15.7445659 C16.1880389,13.5124977 14.9485944,11.6833159 12.6652056,10.8943841 C10.7523722,10.2324068 8.78076111,10.5329523 6.76698333,10.4539295 M6.75420556,5.54674773 L6.73759444,5.54674773 C6.73759444,6.46133864 6.73503889,7.377225 6.73759444,8.29181591 C6.73887222,8.86829318 7.02637222,9.30486136 7.58220556,9.30356591 C9.03503889,9.29967955 10.5134278,9.35667955 11.9317611,9.10924773 C13.6593167,8.80870227 14.5345944,7.434225 14.4310944,5.67240682 C14.3275944,3.90929318 13.2082611,2.50631591 11.3669833,2.16690682 C10.1518167,1.94279318 8.88298333,2.02052045 7.63970556,1.96870227 C7.02765,1.94408864 6.75165,2.26795227 6.75292778,2.87163409 C6.75548333,3.76420227 6.75420556,4.655475 6.75420556,5.54674773" id="Fill-3"></path>
                <path d="M20.4887833,29.7654 L1.39750556,29.7654 C1.07422778,29.7654 0.812283333,29.4959455 0.812283333,29.1643091 C0.812283333,28.8326727 1.07422778,28.5645136 1.39750556,28.5645136 L20.4887833,28.5645136 C20.8120611,28.5645136 21.0740056,28.8326727 21.0740056,29.1643091 C21.0740056,29.4959455 20.8120611,29.7654 20.4887833,29.7654" id="Fill-5"></path>
            </g>
            <path d="M0,119 L74,119 L74,0 L0,0 L0,119 Z M1.36974346,117.638669 L72.6302565,117.638669 L72.6302565,1.36133101 L1.36974346,1.36133101 L1.36974346,117.638669 Z" id="Fill-8"></path>
            <path d="M3,115 L70,115 L70,4 L3,4 L3,115 Z M3.47553668,114.526044 L69.523164,114.526044 L69.523164,4.47266466 L3.47553668,4.47266466 L3.47553668,114.526044 Z" id="Fill-9"></path>
            <g id="Group-26" transform="translate(26.000000, 15.000000)">
                <path d="M0.848035294,4.03182353 L0.848035294,1.06570588 C0.848035294,0.885823529 0.986505882,0.747352941 1.16768235,0.747352941 L3.26285882,0.747352941 C3.41685882,0.747352941 3.54497647,0.875470588 3.54497647,1.03076471 C3.54497647,1.18994118 3.41685882,1.31288235 3.26285882,1.31288235 L1.48085882,1.31288235 L1.48085882,2.24982353 L3.03121176,2.24982353 C3.18521176,2.24982353 3.31462353,2.37923529 3.31462353,2.53841176 C3.31462353,2.69370588 3.18521176,2.81664706 3.03121176,2.81664706 L1.48085882,2.81664706 L1.48085882,3.78464706 L3.28744706,3.78464706 C3.44274118,3.78464706 3.57085882,3.91276471 3.57085882,4.06805882 C3.57085882,4.22723529 3.44274118,4.35147059 3.28744706,4.35147059 L1.16768235,4.35147059 C0.986505882,4.35147059 0.848035294,4.21170588 0.848035294,4.03182353" id="Fill-10"></path>
                <path d="M6.78272941,3.94912941 C6.71025882,3.89736471 6.65849412,3.81065882 6.65849412,3.70712941 C6.65849412,3.54277647 6.79308235,3.41336471 6.95743529,3.41336471 C7.04543529,3.41336471 7.10237647,3.43924706 7.14249412,3.47030588 C7.44143529,3.70712941 7.76108235,3.84171765 8.15190588,3.84171765 C8.54272941,3.84171765 8.78990588,3.65536471 8.78990588,3.38877647 L8.78990588,3.37712941 C8.78990588,3.12089412 8.64625882,2.98112941 7.9772,2.82712941 C7.20978824,2.64207059 6.77755294,2.4156 6.77755294,1.75042353 L6.77755294,1.74007059 C6.77755294,1.12277647 7.29261176,0.695717647 8.00696471,0.695717647 C8.4612,0.695717647 8.82614118,0.813482353 9.15096471,1.0296 C9.22343529,1.07101176 9.28943529,1.15901176 9.28943529,1.28195294 C9.28943529,1.4476 9.15614118,1.57571765 8.99178824,1.57571765 C8.92967059,1.57571765 8.87790588,1.56018824 8.82614118,1.52912941 C8.54790588,1.34924706 8.28131765,1.25607059 7.99661176,1.25607059 C7.62649412,1.25607059 7.41037647,1.4476 7.41037647,1.68442353 L7.41037647,1.69477647 C7.41037647,1.97171765 7.57472941,2.09595294 8.26967059,2.26030588 C9.03190588,2.44665882 9.42402353,2.71842353 9.42402353,3.31630588 L9.42402353,3.32665882 C9.42402353,4.00089412 8.89343529,4.40207059 8.13637647,4.40207059 C7.6472,4.40207059 7.18390588,4.24807059 6.78272941,3.94912941" id="Fill-12"></path>
                <path d="M13.5560118,1.33371765 L12.6811882,1.33371765 C12.5155412,1.33371765 12.3874235,1.20042353 12.3874235,1.03995294 C12.3874235,0.880776471 12.5155412,0.747482353 12.6811882,0.747482353 L15.0753059,0.747482353 C15.2344824,0.747482353 15.3626,0.880776471 15.3626,1.03995294 C15.3626,1.20042353 15.2344824,1.33371765 15.0753059,1.33371765 L14.1953059,1.33371765 L14.1953059,4.06301176 C14.1953059,4.23771765 14.0503647,4.37618824 13.8756588,4.37618824 C13.7009529,4.37618824 13.5560118,4.23771765 13.5560118,4.06301176 L13.5560118,1.33371765 Z" id="Fill-14"></path>
                <path d="M18.5840471,1.06622353 C18.5840471,0.886341176 18.7238118,0.746576471 18.9036941,0.746576471 L20.2016941,0.746576471 C20.6132235,0.746576471 20.9367529,0.860458824 21.1438118,1.06622353 C21.3029882,1.2254 21.3858118,1.42081176 21.3858118,1.66281176 L21.3858118,1.67316471 C21.3858118,2.10669412 21.1386353,2.33834118 20.8707529,2.47681176 C21.2926353,2.62045882 21.5864,2.86375294 21.5864,3.35163529 L21.5864,3.36198824 C21.5864,4.00645882 21.0558118,4.35069412 20.2534588,4.35069412 L18.9036941,4.35069412 C18.7238118,4.35069412 18.5840471,4.21222353 18.5840471,4.03234118 L18.5840471,1.06622353 Z M20.0722824,2.26587059 C20.4786353,2.26587059 20.7516941,2.10669412 20.7516941,1.77669412 L20.7516941,1.76634118 C20.7516941,1.48292941 20.5252235,1.30822353 20.1188706,1.30822353 L19.2078118,1.30822353 L19.2078118,2.26587059 L20.0722824,2.26587059 Z M20.2573412,3.79034118 C20.6895765,3.79034118 20.9535765,3.61951765 20.9535765,3.29598824 L20.9535765,3.28563529 C20.9535765,2.98151765 20.7115765,2.80163529 20.2107529,2.80163529 L19.2078118,2.80163529 L19.2078118,3.79034118 L20.2573412,3.79034118 Z" id="Fill-16"></path>
                <path d="M1.23277647,86.9573294 L2.33924706,86.0152118 C2.8336,85.5985059 3.01348235,85.3668588 3.01348235,85.0420353 C3.01348235,84.6874471 2.76242353,84.4803882 2.43242353,84.4803882 C2.14512941,84.4803882 1.94324706,84.6149765 1.72195294,84.8828588 C1.67536471,84.9346235 1.60418824,84.9799176 1.50065882,84.9799176 C1.34018824,84.9799176 1.21207059,84.8518 1.21207059,84.6926235 C1.21207059,84.6253294 1.23795294,84.5528588 1.28454118,84.4959176 C1.57830588,84.1309765 1.91218824,83.9148588 2.47901176,83.9148588 C3.18430588,83.9148588 3.66830588,84.3470941 3.66830588,84.9902706 L3.66830588,85.0006235 C3.66830588,85.5674471 3.36936471,85.8767412 2.73136471,86.3956824 L1.98983529,87.0142706 L3.45218824,87.0142706 C3.60618824,87.0142706 3.73042353,87.1372118 3.73042353,87.2925059 C3.73042353,87.4465059 3.60618824,87.5694471 3.45218824,87.5694471 L1.40748235,87.5694471 C1.21207059,87.5694471 1.06842353,87.4568588 1.06842353,87.2718 C1.06842353,87.1475647 1.12536471,87.0453294 1.23277647,86.9573294" id="Fill-18"></path>
                <path d="M6.87370588,85.7782588 L6.87370588,85.7679059 C6.87370588,84.7377882 7.50135294,83.9043765 8.44864706,83.9043765 C9.39205882,83.9043765 10.0145294,84.7274353 10.0145294,85.7575529 L10.0145294,85.7679059 C10.0145294,86.7980235 9.38558824,87.6314353 8.43829412,87.6314353 C7.49229412,87.6314353 6.87370588,86.8083765 6.87370588,85.7782588 M9.361,85.7782588 L9.361,85.7679059 C9.361,85.0574353 8.99476471,84.4750824 8.43829412,84.4750824 C7.88311765,84.4750824 7.52723529,85.0419059 7.52723529,85.7575529 L7.52723529,85.7679059 C7.52723529,86.4783765 7.88829412,87.0607294 8.44864706,87.0607294 C9.01029412,87.0607294 9.361,86.4835529 9.361,85.7782588" id="Fill-20"></path>
                <path d="M13.7765294,84.5630824 L13.4064118,84.6769647 C13.3701765,84.6873176 13.3235882,84.6924941 13.2925294,84.6924941 C13.1437059,84.6924941 13.0142941,84.5682588 13.0142941,84.4246118 C13.0142941,84.2900235 13.0971176,84.1877882 13.2265294,84.1515529 L13.7713529,83.9768471 C13.8955882,83.9406118 13.9887647,83.9199059 14.0806471,83.9199059 L14.091,83.9199059 C14.2708824,83.9199059 14.4054706,84.0583765 14.4054706,84.2330824 L14.4054706,87.2820235 C14.4054706,87.4567294 14.2657059,87.5952 14.091,87.5952 C13.9214706,87.5952 13.7765294,87.4567294 13.7765294,87.2820235 L13.7765294,84.5630824 Z" id="Fill-22"></path>
                <path d="M17.7695294,85.7782588 L17.7695294,85.7679059 C17.7695294,84.7377882 18.3971765,83.9043765 19.3444706,83.9043765 C20.2878824,83.9043765 20.9103529,84.7274353 20.9103529,85.7575529 L20.9103529,85.7679059 C20.9103529,86.7980235 20.2814118,87.6314353 19.3341176,87.6314353 C18.3881176,87.6314353 17.7695294,86.8083765 17.7695294,85.7782588 M20.2568235,85.7782588 L20.2568235,85.7679059 C20.2568235,85.0574353 19.8905882,84.4750824 19.3341176,84.4750824 C18.7789412,84.4750824 18.4230588,85.0419059 18.4230588,85.7575529 L18.4230588,85.7679059 C18.4230588,86.4783765 18.7841176,87.0607294 19.3444706,87.0607294 C19.9061176,87.0607294 20.2568235,86.4835529 20.2568235,85.7782588" id="Fill-24"></path>
            </g>
        </g>
    </g>
</svg>