<?xml version="1.0" encoding="UTF-8"?>
<svg width="29px" height="29px" viewBox="0 0 29 29" version="1.1" xmlns="http://www.w3.org/2000/svg" xmlns:xlink="http://www.w3.org/1999/xlink">
    <!-- Generator: Sketch 51.3 (57544) - http://www.bohemiancoding.com/sketch -->
    <title>pinterest@2x</title>
    <desc>Created with Sketch.</desc>
    <defs></defs>
    <g id="pinterest" stroke="none" stroke-width="1" fill="none" fill-rule="evenodd">
        <path d="M19.3142451,8.63972687 C18.176053,7.58179057 16.5995031,7 14.878372,7 C12.2466872,7 10.6286086,8.04305674 9.73497397,8.91797453 C8.63215807,9.9967422 8,11.4296433 8,12.8476648 C8,14.6287474 8.77058684,15.9961784 10.0610506,16.5050592 C10.1471841,16.5392822 10.2333176,16.5556497 10.319451,16.5556497 C10.5916943,16.5556497 10.8070279,16.3845348 10.8823947,16.1077751 C10.9254614,15.9485639 11.0254378,15.5587195 11.0700426,15.3890926 C11.1638665,15.0528147 11.0884998,14.8921155 10.8839328,14.6585065 C10.5101751,14.2314633 10.3363701,13.7270464 10.3363701,13.0693701 C10.3363701,11.1186606 11.8390913,9.04445074 14.6230478,9.04445074 C16.8317558,9.04445074 18.2037388,10.2586224 18.2037388,12.2137958 C18.2037388,13.4473108 17.9299574,14.5900606 17.4300757,15.4322433 C17.0840038,16.0155218 16.4749172,16.7133729 15.5382158,16.7133729 C15.1336962,16.7133729 14.7691671,16.5511858 14.5399905,16.2714502 C14.3231188,16.0065941 14.2523663,15.6643644 14.3400379,15.3072551 C14.4384761,14.9040192 14.5722906,14.4829278 14.7014908,14.0767159 C14.9383578,13.3342262 15.16292,12.6319112 15.16292,12.07244 C15.16292,11.1156847 14.5553715,10.4714 13.6494321,10.4714 C12.4989352,10.4714 11.59761,11.6022461 11.59761,13.0455628 C11.59761,13.7538296 11.7914103,14.2835417 11.88062,14.4859037 C11.7345007,15.0795979 10.8731661,18.612004 10.7101278,19.2786081 C10.6163038,19.6669644 10.0472078,22.7381044 10.9885234,22.9821291 C12.0467345,23.2574008 12.9926645,20.2666105 13.0895646,19.9288446 C13.1680076,19.6535728 13.4402508,18.61498 13.6079035,17.9766471 C14.1185518,18.4527928 14.941434,18.7741912 15.7412447,18.7741912 C17.2516564,18.7741912 18.6082584,18.1165149 19.5634169,16.9246626 C20.4893516,15.7670333 21,14.1555776 21,12.3834227 C21,10.9996241 20.3862991,9.63516904 19.3142451,8.63972687" id="Fill-11" fill="#9E6E4F"></path>
    </g>
</svg>