<?xml version="1.0" encoding="UTF-8"?>
<svg width="24px" height="24px" viewBox="0 0 24 24" version="1.1" xmlns="http://www.w3.org/2000/svg" xmlns:xlink="http://www.w3.org/1999/xlink">
    <!-- Generator: Sketch 56.3 (81716) - https://sketch.com -->
    <title>Artboard Copy</title>
    <desc>Created with Sketch.</desc>
    <g id="Artboard-Copy" stroke="none" stroke-width="1" fill="none" fill-rule="evenodd">
        <g id="Group-2" transform="translate(3.000000, 3.000000)">
            <path d="M10.9754,4.31 L9.8224,4.308 C8.5274,4.308 7.6904,5.167 7.6904,6.496 L7.6904,7.505 L6.5304,7.505 C6.4304,7.505 6.3494,7.586 6.3494,7.686 L6.3494,9.148 C6.3494,9.248 6.4304,9.33 6.5304,9.33 L7.6904,9.33 L7.6904,13.018 C7.6904,13.118 7.7714,13.199 7.8714,13.199 L9.3834,13.199 C9.4844,13.199 9.5654,13.118 9.5654,13.018 L9.5654,9.33 L10.9204,9.33 C11.0204,9.33 11.1014,9.248 11.1014,9.148 L11.1024,7.686 C11.1024,7.638 11.0834,7.592 11.0494,7.558 C11.0154,7.524 10.9694,7.505 10.9214,7.505 L9.5654,7.505 L9.5654,6.65 C9.5654,6.239 9.6634,6.03 10.1984,6.03 L10.9754,6.03 C11.0754,6.03 11.1564,5.949 11.1564,5.849 L11.1564,4.491 C11.1564,4.391 11.0754,4.31 10.9754,4.31" id="Fill-1" fill="#000000"></path>
            <path d="M8.753,17.507 C13.587,17.507 17.506,13.588 17.506,8.754 C17.506,3.919 13.587,1.77635684e-15 8.753,1.77635684e-15 C3.919,1.77635684e-15 4.26325641e-14,3.919 4.26325641e-14,8.754 C4.26325641e-14,13.588 3.919,17.507 8.753,17.507 Z" id="Stroke-17" stroke="#1D1D1B" stroke-width="0.5"></path>
        </g>
    </g>
</svg>