<?xml version="1.0" encoding="UTF-8"?>
<svg width="24px" height="24px" viewBox="0 0 24 24" version="1.1" xmlns="http://www.w3.org/2000/svg" xmlns:xlink="http://www.w3.org/1999/xlink">
    <!-- Generator: Sketch 56.3 (81716) - https://sketch.com -->
    <title>Artboard</title>
    <desc>Created with Sketch.</desc>
    <g id="Artboard" stroke="none" stroke-width="1" fill="none" fill-rule="evenodd">
        <g id="Group" transform="translate(3.000000, 3.000000)">
            <path d="M12.365,10.4208 C12.365,11.4928 11.493,12.3658 10.42,12.3658 L7.086,12.3658 C6.013,12.3658 5.141,11.4928 5.141,10.4208 L5.141,7.0868 C5.141,6.0138 6.013,5.1418 7.086,5.1418 L10.42,5.1418 C11.493,5.1418 12.365,6.0138 12.365,7.0868 L12.365,10.4208 Z M10.42,4.3078 L7.086,4.3078 C5.552,4.3078 4.307,5.5528 4.307,7.0868 L4.307,10.4208 C4.307,11.9548 5.552,13.1988 7.086,13.1988 L10.42,13.1988 C11.954,13.1988 13.199,11.9548 13.199,10.4208 L13.199,7.0868 C13.199,5.5528 11.954,4.3078 10.42,4.3078 L10.42,4.3078 Z" id="Fill-3" fill="#000000"></path>
            <path d="M8.7367,10.1216 C7.9737,10.1216 7.3527,9.5006 7.3527,8.7376 C7.3527,7.9736 7.9737,7.3536 8.7367,7.3536 C9.4997,7.3536 10.1207,7.9736 10.1207,8.7376 C10.1207,9.5006 9.4997,10.1216 8.7367,10.1216 M8.7367,6.5226 C7.5137,6.5226 6.5217,7.5146 6.5217,8.7376 C6.5217,9.9606 7.5137,10.9516 8.7367,10.9516 C9.9597,10.9516 10.9517,9.9606 10.9517,8.7376 C10.9517,7.5146 9.9597,6.5226 8.7367,6.5226" id="Fill-5" fill="#000000"></path>
            <path d="M11.1142,6.0669 C11.2762,6.0669 11.4072,6.1979 11.4072,6.3599 C11.4072,6.5219 11.2762,6.6529 11.1142,6.6529 C10.9522,6.6529 10.8212,6.5219 10.8212,6.3599 C10.8212,6.1979 10.9522,6.0669 11.1142,6.0669" id="Fill-7" fill="#000000"></path>
            <path d="M8.753,17.507 C13.587,17.507 17.506,13.588 17.506,8.754 C17.506,3.919 13.587,-2.66453526e-14 8.753,-2.66453526e-14 C3.919,-2.66453526e-14 4.26325641e-14,3.919 4.26325641e-14,8.754 C4.26325641e-14,13.588 3.919,17.507 8.753,17.507 Z" id="Stroke-15" stroke="#1D1D1B" stroke-width="0.5"></path>
        </g>
    </g>
</svg>