<?xml version="1.0" encoding="UTF-8"?>
<svg width="24px" height="24px" viewBox="0 0 24 24" version="1.1" xmlns="http://www.w3.org/2000/svg" xmlns:xlink="http://www.w3.org/1999/xlink">
    <!-- Generator: Sketch 56.3 (81716) - https://sketch.com -->
    <title>Artboard Copy 2</title>
    <desc>Created with Sketch.</desc>
    <g id="Artboard-Copy-2" stroke="none" stroke-width="1" fill="none" fill-rule="evenodd">
        <g id="Group-3" transform="translate(3.000000, 3.000000)">
            <polygon id="Fill-10" fill="#000000" points="4.5168 12.909 6.4498 12.909 6.4498 7.103 4.5168 7.103"></polygon>
            <path d="M12.7951,7.6331 C12.3891,7.1901 11.8521,6.9681 11.1841,6.9681 C10.9381,6.9681 10.7141,6.9981 10.5131,7.0591 C10.3121,7.1191 10.1421,7.2041 10.0031,7.3141 C9.8651,7.4231 9.7541,7.5251 9.6721,7.6181 C9.5941,7.7071 9.5181,7.8111 9.4441,7.9281 L9.4441,7.1031 L7.5161,7.1031 L7.5221,7.3841 C7.5261,7.5711 7.5281,8.1491 7.5281,9.1181 C7.5281,10.0871 7.5241,11.3501 7.5161,12.9091 L9.4441,12.9091 L9.4441,9.6691 C9.4441,9.4701 9.4651,9.3111 9.5081,9.1941 C9.5901,8.9951 9.7141,8.8281 9.8801,8.6931 C10.0461,8.5581 10.2521,8.4911 10.4981,8.4911 C10.8341,8.4911 11.0811,8.6071 11.2401,8.8401 C11.3981,9.0721 11.4771,9.3931 11.4771,9.8031 L11.4771,12.9081 L13.4041,12.9081 L13.4041,9.5811 C13.4041,8.7251 13.2011,8.0761 12.7951,7.6331" id="Fill-11" fill="#000000"></path>
            <path d="M5.4952,4.3082 C5.1712,4.3082 4.9082,4.4032 4.7072,4.5922 C4.5062,4.7822 4.4052,5.0212 4.4052,5.3102 C4.4052,5.5952 4.5032,5.8332 4.6982,6.0252 C4.8932,6.2162 5.1512,6.3122 5.4722,6.3122 L5.4832,6.3122 C5.8112,6.3122 6.0762,6.2162 6.2772,6.0252 C6.4782,5.8332 6.5772,5.5952 6.5732,5.3102 C6.5692,5.0212 6.4692,4.7822 6.2742,4.5922 C6.0792,4.4032 5.8192,4.3082 5.4952,4.3082" id="Fill-13" fill="#000000"></path>
            <path d="M8.753,17.507 C13.587,17.507 17.506,13.588 17.506,8.754 C17.506,3.919 13.587,1.77635684e-15 8.753,1.77635684e-15 C3.919,1.77635684e-15 4.26325641e-14,3.919 4.26325641e-14,8.754 C4.26325641e-14,13.588 3.919,17.507 8.753,17.507 Z" id="Stroke-19" stroke="#1D1D1B" stroke-width="0.5"></path>
        </g>
    </g>
</svg>